<svg width="12" height="14" viewBox="0 0 12 14" fill="none" xmlns="http://www.w3.org/2000/svg">
<path fill-rule="evenodd" clip-rule="evenodd" d="M3.33333 0.333496C2.96514 0.333496 2.66667 0.631973 2.66667 1.00016V1.66683H2C0.89543 1.66683 0 2.56226 0 3.66683V5.00016V11.6668C0 12.7714 0.895431 13.6668 2 13.6668H10C11.1046 13.6668 12 12.7714 12 11.6668V5.00016V3.66683C12 2.56226 11.1046 1.66683 10 1.66683H9.33333V1.00016C9.33333 0.631973 9.03486 0.333496 8.66667 0.333496C8.29848 0.333496 8 0.631973 8 1.00016V1.66683H4V1.00016C4 0.631973 3.70152 0.333496 3.33333 0.333496ZM8.66667 3.00016H3.33333H2C1.63181 3.00016 1.33333 3.29864 1.33333 3.66683V4.3335H10.6667V3.66683C10.6667 3.29864 10.3682 3.00016 10 3.00016H8.66667ZM1.33333 11.6668V5.66683L10.6667 5.66683V11.6668C10.6667 12.035 10.3682 12.3335 10 12.3335H2C1.63181 12.3335 1.33333 12.035 1.33333 11.6668Z" fill="#2E2E2E"/>
</svg>
