<svg width="52" height="66" viewBox="0 0 52 66" fill="none" xmlns="http://www.w3.org/2000/svg">
<path d="M26 32.1875C27.5708 32.1875 28.9115 31.6323 30.0219 30.5219C31.1323 29.4115 31.6875 28.0708 31.6875 26.5C31.6875 24.9292 31.1323 23.5885 30.0219 22.4781C28.9115 21.3677 27.5708 20.8125 26 20.8125C24.4292 20.8125 23.0885 21.3677 21.9781 22.4781C20.8677 23.5885 20.3125 24.9292 20.3125 26.5C20.3125 28.0708 20.8677 29.4115 21.9781 30.5219C23.0885 31.6323 24.4292 32.1875 26 32.1875ZM26 59.0812C33.2042 52.5271 38.526 46.5823 41.9656 41.2469C45.4052 35.9115 47.125 31.2125 47.125 27.15C47.125 20.7583 45.0802 15.5312 40.9906 11.4688C36.901 7.40625 31.9042 5.375 26 5.375C20.0958 5.375 15.099 7.40625 11.0094 11.4688C6.91979 15.5312 4.875 20.7583 4.875 27.15C4.875 31.2125 6.63542 35.9115 10.1562 41.2469C13.6771 46.5823 18.9583 52.5271 26 59.0812ZM26 65.5C17.2792 58.0792 10.7656 51.1865 6.45938 44.8219C2.15313 38.4573 0 32.5667 0 27.15C0 19.025 2.61354 12.5521 7.84062 7.73125C13.0677 2.91042 19.1208 0.5 26 0.5C32.8792 0.5 38.9323 2.91042 44.1594 7.73125C49.3865 12.5521 52 19.025 52 27.15C52 32.5667 49.8469 38.4573 45.5406 44.8219C41.2344 51.1865 34.7208 58.0792 26 65.5Z" fill="#FFACAC"/>
</svg>
