<svg width="49" height="56" viewBox="0 0 49 56" fill="none" xmlns="http://www.w3.org/2000/svg">
<path d="M38.3631 19.6336C42.8025 22.4081 45.0219 23.7952 45.7831 25.5716C46.4479 27.1225 46.4479 28.8784 45.7831 30.4297C45.0219 32.2057 42.8025 33.5928 38.3631 36.3675L17.513 49.3989C12.586 52.4783 10.1225 54.0181 8.08949 53.8544C6.31744 53.7119 4.69305 52.8119 3.63306 51.3846C2.41699 49.7473 2.41699 46.8422 2.41699 41.032V14.9691C2.41699 9.15894 2.41699 6.25388 3.63306 4.61654C4.69305 3.18933 6.31744 2.28902 8.08949 2.14654C10.1225 1.98313 12.586 3.52282 17.513 6.60221L38.3631 19.6336Z" stroke="#FFACAC" stroke-width="3.67" stroke-linejoin="round"/>
</svg>
